<?xml version="1.0" standalone="no"?>
<!DOCTYPE svg PUBLIC "-//W3C//DTD SVG 20010904//EN"
 "http://www.w3.org/TR/2001/REC-SVG-20010904/DTD/svg10.dtd">
<svg version="1.0" xmlns="http://www.w3.org/2000/svg"
 width="712.000000pt" height="192.000000pt" viewBox="0 0 712.000000 192.000000"
 preserveAspectRatio="xMidYMid meet">
<metadata>
Created by potrace 1.16, written by Peter Selinger 2001-2019
</metadata>
<g transform="translate(0.000000,192.000000) scale(0.100000,-0.100000)"
fill="#000000" stroke="none">
<path d="M1393 1751 c-56 -9 -104 -19 -107 -22 -5 -5 -102 -401 -177 -724 -38
-163 -85 -357 -98 -410 -18 -69 -22 -66 101 -63 l112 3 38 160 c21 88 54 230
74 315 22 89 43 160 52 168 9 7 43 12 79 12 54 0 68 -4 88 -24 49 -49 47 -67
-45 -451 -22 -93 -40 -173 -40 -178 0 -4 51 -6 113 -5 l112 3 22 95 c12 52 37
163 57 245 47 194 53 256 33 326 -23 77 -54 120 -111 150 -59 32 -121 41 -201
30 -33 -5 -62 -7 -64 -5 -4 4 17 98 75 342 9 39 9 52 1 51 -7 -1 -58 -9 -114
-18z"/>
<path d="M3834 1731 c-47 -22 -84 -74 -91 -129 -9 -76 66 -141 148 -127 87 15
162 131 128 200 -32 65 -113 90 -185 56z"/>
<path d="M5875 1736 c-131 -60 -130 -237 0 -262 48 -9 99 11 139 56 57 63 58
152 1 193 -33 24 -103 31 -140 13z"/>
<path d="M6685 1700 c-56 -28 -87 -77 -88 -140 -1 -59 25 -94 84 -111 78 -24
161 20 193 103 28 68 5 126 -61 154 -45 19 -81 17 -128 -6z"/>
<path d="M5190 1596 l-75 -11 -11 -50 c-6 -27 -33 -140 -59 -250 -114 -482
-125 -558 -90 -642 47 -116 199 -162 394 -119 41 8 79 20 84 25 5 5 5 45 1 91
l-7 82 -31 -6 c-136 -25 -195 -15 -222 36 -19 37 -16 61 34 268 l38 155 132 3
131 3 10 37 c33 125 38 151 33 156 -3 3 -63 6 -133 6 l-127 0 29 113 c16 61
29 113 29 115 0 5 -90 -1 -160 -12z"/>
<path d="M6260 1413 c-120 -12 -165 -25 -197 -56 -19 -17 -33 -41 -33 -54 0
-31 34 -63 66 -63 30 0 89 33 103 58 8 15 33 18 175 21 159 3 166 2 166 -16 0
-11 -24 -69 -54 -129 -52 -106 -57 -112 -167 -209 -106 -94 -228 -195 -311
-258 -21 -15 -59 -47 -85 -71 -44 -40 -46 -46 -36 -69 18 -38 48 -43 92 -14
49 33 259 205 339 279 35 32 67 56 73 53 5 -4 9 -18 9 -33 0 -68 77 -115 185
-114 76 1 299 53 401 94 49 19 60 27 62 50 5 41 -27 53 -86 34 -68 -22 -237
-63 -313 -76 -49 -9 -77 -9 -107 0 -52 13 -59 35 -38 116 14 54 22 65 102 139
136 125 180 155 229 155 48 0 75 22 75 63 0 38 -25 57 -73 57 -45 0 -59 -8
-145 -77 -29 -24 -55 -43 -58 -43 -2 0 -2 22 2 48 5 42 3 52 -18 76 -15 18
-39 31 -68 37 -43 8 -218 10 -290 2z"/>
<path d="M500 1384 c-19 -3 -78 -14 -130 -24 -52 -11 -97 -20 -101 -20 -4 0
-10 -17 -14 -37 -3 -21 -24 -112 -46 -203 -22 -91 -53 -219 -69 -285 -16 -66
-54 -221 -84 -345 -30 -124 -51 -229 -47 -233 4 -4 55 -6 112 -5 l104 3 18 70
c10 39 27 105 39 147 l20 77 76 -5 c209 -16 396 86 485 264 46 93 61 165 55
277 -8 147 -61 235 -174 286 -62 28 -167 42 -244 33z m145 -227 c64 -64 69
-183 11 -300 -45 -92 -122 -136 -240 -137 l-68 0 6 38 c19 102 100 418 110
424 6 4 42 8 80 8 64 0 70 -2 101 -33z"/>
<path d="M3140 1383 c-19 -2 -64 -13 -99 -25 -111 -36 -178 -117 -188 -229 -5
-46 -1 -66 20 -112 28 -61 68 -94 178 -146 87 -41 111 -64 107 -104 -8 -80
-153 -104 -295 -48 l-72 28 -35 -74 c-20 -41 -36 -81 -36 -88 0 -20 95 -52
203 -69 83 -14 104 -14 178 -1 98 17 129 28 186 67 114 77 138 260 46 352 -19
19 -80 58 -135 87 -64 34 -104 61 -111 76 -14 32 1 74 33 90 39 20 152 16 212
-7 29 -11 56 -20 60 -20 11 0 79 152 75 165 -13 31 -230 70 -327 58z"/>
<path d="M4411 1380 c-235 -49 -403 -288 -389 -555 10 -184 92 -281 263 -310
134 -22 253 16 360 116 114 107 170 257 163 433 -5 115 -29 177 -94 240 -64
62 -202 97 -303 76z m118 -204 c33 -18 47 -46 56 -117 12 -102 -33 -246 -97
-307 -60 -56 -163 -65 -206 -19 -70 74 -38 299 56 401 50 53 133 72 191 42z"/>
<path d="M2006 1371 c-7 -11 18 -271 40 -411 8 -52 28 -159 45 -238 17 -78 28
-153 25 -165 -7 -31 -62 -84 -109 -109 -40 -20 -101 -21 -167 -3 -25 6 -28 2
-61 -84 l-36 -91 36 -9 c20 -5 55 -15 79 -21 55 -14 172 8 242 46 111 60 248
232 434 541 83 139 253 523 241 544 -7 11 -205 12 -222 1 -7 -4 -33 -68 -58
-142 -70 -202 -185 -435 -204 -414 -12 13 -32 193 -45 389 l-11 170 -112 3
c-63 1 -114 -1 -117 -7z"/>
<path d="M3722 1368 c-7 -7 -12 -19 -12 -26 0 -8 -32 -148 -71 -311 -38 -163
-79 -334 -90 -381 -11 -47 -22 -93 -25 -102 -5 -16 5 -18 110 -18 l114 0 7 33
c4 17 20 86 35 152 16 66 52 217 79 335 28 118 57 238 65 267 8 28 12 54 8 57
-11 12 -208 6 -220 -6z"/>
<path d="M5751 1356 c-5 -13 -32 -122 -61 -242 -28 -121 -66 -282 -85 -359
-19 -77 -37 -159 -41 -182 l-7 -43 111 0 110 0 31 133 c18 72 40 166 51 207
10 41 31 127 45 190 15 63 37 159 49 212 13 54 21 100 18 103 -3 3 -52 5 -109
5 -100 0 -104 -1 -112 -24z"/>
</g>
</svg>
